# xmcd CD database file
#
# Track frame offsets:
#	183
#	19435
#	40665
#	68613
#	83465
#	101525
#	115955
#	128640
#	143763
#	158620
#	181065
#	195678
#	219618
#	236685
#	248203
#	263990
#	280703
#	298863
#	313840
#
# Disc length: 4331 seconds
#
# Revision: 0
# Processed by: cddbd v1.5.1PL0 Copyright (c) Steve Scherf et al.
# Submitted via: CDex 1.50
#
DISCID=0d10e913
DTITLE=Ray Baretto - Descarga Criolla
DYEAR=1900
DGENRE=Salsa
TTITLE0=Descarga Criolla
TTITLE1=Bilongo
TTITLE2=Trompeta Y Trombon
TTITLE3=Rareza En Guajira
TTITLE4=Maracaibo
TTITLE5=No Me Molestes Mas
TTITLE6=Descarga Del Barrio
TTITLE7=Si Mi Suerte
TTITLE8=Margie
TTITLE9=Fuego Y Pa'Lante
TTITLE10=Roberta
TTITLE11=Bogaloo Con Soul
TTITLE12=Salsa Y Dulzura
TTITLE13=Watusi '65
TTITLE14=Esa Es La Del Solar
TTITLE15=El Picor
TTITLE16=Ya Soy La Candela
TTITLE17=Despojate
TTITLE18=Happy Birthday Everybody
EXTD=
EXTT0=
EXTT1=
EXTT2=
EXTT3=
EXTT4=
EXTT5=
EXTT6=
EXTT7=
EXTT8=
EXTT9=
EXTT10=
EXTT11=
EXTT12=
EXTT13=
EXTT14=
EXTT15=
EXTT16=
EXTT17=
EXTT18=
PLAYORDER=
